<?xml version="1.0" encoding="utf-8"?>
<!-- Generator: Adobe Illustrator 24.3.0, SVG Export Plug-In . SVG Version: 6.00 Build 0)  -->
<svg version="1.1" id="Layer_1" xmlns="http://www.w3.org/2000/svg" xmlns:xlink="http://www.w3.org/1999/xlink" x="0px" y="0px"
	 viewBox="0 0 32 32" enable-background="new 0 0 32 32" xml:space="preserve">
<g>
	<g>
		<path d="M16,28.458C9.131,28.458,3.542,22.87,3.542,16C3.542,9.13,9.131,3.542,16,3.542S28.458,9.13,28.458,16
			C28.458,22.87,22.869,28.458,16,28.458z M16,4.542C9.682,4.542,4.542,9.682,4.542,16S9.682,27.458,16,27.458
			S27.458,22.319,27.458,16S22.318,4.542,16,4.542z"/>
	</g>
	<g>
		<path d="M11.583,25.185c-0.061,0-0.122-0.012-0.182-0.036c-0.041-0.016-0.093-0.044-0.128-0.07
			c-3.376-1.714-5.518-5.213-5.518-9.086c0-1.616,0.373-3.173,1.109-4.625c0.127-0.247,0.429-0.342,0.672-0.221
			c0.247,0.125,0.346,0.426,0.221,0.672c-0.665,1.312-1.002,2.716-1.002,4.174c0,3.495,1.933,6.653,5.045,8.24
			c0.237,0.121,0.345,0.412,0.234,0.655C11.951,25.073,11.772,25.185,11.583,25.185z M24.682,20.92
			c-0.077,0-0.154-0.018-0.227-0.055c-0.246-0.125-0.345-0.426-0.219-0.672c0.669-1.313,1.008-2.722,1.008-4.186
			c0-3.496-1.933-6.654-5.045-8.241l0.444-0.896L20.4,7.308l0.247-0.435c3.455,1.762,5.597,5.261,5.597,9.135
			c0,1.623-0.376,3.184-1.117,4.639C25.039,20.821,24.863,20.92,24.682,20.92z"/>
	</g>
	<g>
		<path d="M16,11.963c-2.23,0-4.037,1.808-4.037,4.037c0,2.23,1.808,4.037,4.037,4.037S20.037,18.23,20.037,16
			C20.037,13.77,18.23,11.963,16,11.963z M16,16.712c-0.393,0-0.712-0.319-0.712-0.712c0-0.393,0.319-0.712,0.712-0.712
			s0.712,0.319,0.712,0.712C16.712,16.393,16.393,16.712,16,16.712z"/>
	</g>
</g>
</svg>
